# xmcd CD database file
#
# Track frame offsets:
#	150
#	21275
#	44297
#	73025
#	92290
#	119057
#	138375
#	167462
#	186690
#	214522
#	239405
#	274597
#
# Disc length: 3979 seconds
#
# Revision: 5
# Processed by: cddbd v1.5.2PL0 Copyright (c) Steve Scherf et al.
# Submitted via: CDex 2.12
#
DISCID=ac0f890c
DTITLE=Son Seals - Spontaneous Combustion Live
DYEAR=1996
DGENRE=Blues
TTITLE0=Crying For My Baby
TTITLE1=Don't Pick Me For Your Fool
TTITLE2=Mother Blues
TTITLE3=No, No Baby
TTITLE4=Your Love Is Like A Cancer
TTITLE5=I Need My Baby Back
TTITLE6=Sitting Here Thinking
TTITLE7=Every Goodbye Ain't Gone
TTITLE8=The Sun Is Shining
TTITLE9=Landlord At My Door
TTITLE10=Trouble, Trouble
TTITLE11=Don't Lie To Me
EXTD=YEAR: 1996
EXTT0=
EXTT1=
EXTT2=
EXTT3=
EXTT4=
EXTT5=
EXTT6=
EXTT7=
EXTT8=
EXTT9=
EXTT10=
EXTT11=
PLAYORDER=
